<svg viewBox="0 0 100 100" xmlns="http://www.w3.org/2000/svg">
  <defs>
    <linearGradient id="bgGrad" x1="0%" y1="0%" x2="100%" y2="100%">
      <stop offset="0%" stop-color="#1E40AF"/>
      <stop offset="100%" stop-color="#3B82F6"/>
    </linearGradient>
    <linearGradient id="lineGrad" x1="0%" y1="0%" x2="100%" y2="100%">
      <stop offset="0%" stop-color="#60A5FA"/>
      <stop offset="100%" stop-color="#93C5FD"/>
    </linearGradient>
  </defs>
  
  <!-- Background -->
  <rect width="100" height="100" rx="20" fill="url(#bgGrad)"/>
  
  <!-- Neural network connections -->
  <g stroke="url(#lineGrad)" stroke-width="3" fill="none" opacity="0.9">
    <path d="M50 18 L28 38"/>
    <path d="M50 18 L72 38"/>
    <path d="M28 38 L28 62"/>
    <path d="M72 38 L72 62"/>
    <path d="M28 38 L50 50"/>
    <path d="M72 38 L50 50"/>
    <path d="M28 62 L50 82"/>
    <path d="M72 62 L50 82"/>
    <path d="M50 50 L50 82"/>
  </g>
  
  <!-- Neural network nodes -->
  <g fill="#93C5FD">
    <circle cx="50" cy="18" r="7"/>
    <circle cx="28" cy="38" r="6"/>
    <circle cx="72" cy="38" r="6"/>
    <circle cx="28" cy="62" r="5"/>
    <circle cx="72" cy="62" r="5"/>
    <circle cx="50" cy="50" r="6"/>
    <circle cx="50" cy="82" r="7"/>
  </g>
</svg>
