<svg xmlns="http://www.w3.org/2000/svg" xmlns:xlink="http://www.w3.org/1999/xlink" width="1080" zoomAndPan="magnify" viewBox="0 0 810 809.999993" height="1080" preserveAspectRatio="xMidYMid meet" version="1.0"><defs><g/><clipPath id="c9a531bbbf"><path d="M 18.007812 0 L 810 0 L 810 791.992188 L 18.007812 791.992188 Z M 18.007812 0 " clip-rule="nonzero"/></clipPath><clipPath id="2fc4bc52d6"><path d="M 414.003906 0 C 195.300781 0 18.007812 177.292969 18.007812 395.996094 C 18.007812 614.699219 195.300781 791.992188 414.003906 791.992188 C 632.707031 791.992188 810 614.699219 810 395.996094 C 810 177.292969 632.707031 0 414.003906 0 Z M 414.003906 0 " clip-rule="nonzero"/></clipPath><clipPath id="4c4f94eded"><path d="M 18.007812 0 L 761 0 L 761 790.398438 L 18.007812 790.398438 Z M 18.007812 0 " clip-rule="nonzero"/></clipPath><clipPath id="33cdb46c4f"><path d="M 235.414062 258.632812 L 258.105469 258.632812 L 258.105469 536.808594 L 235.414062 536.808594 Z M 235.414062 258.632812 " clip-rule="nonzero"/></clipPath></defs><g clip-path="url(#c9a531bbbf)"><g clip-path="url(#2fc4bc52d6)"><path fill="#ffffff" d="M 18.007812 0 L 810 0 L 810 791.992188 L 18.007812 791.992188 Z M 18.007812 0 " fill-opacity="1" fill-rule="nonzero"/></g></g><g clip-path="url(#4c4f94eded)"><path fill="#1f2122" d="M 414.035156 790.777344 C 360.601562 790.777344 308.75 780.320312 259.917969 759.6875 C 212.765625 739.777344 170.425781 711.269531 134.078125 674.96875 C 97.730469 638.675781 69.1875 596.390625 49.242188 549.304688 C 28.59375 500.535156 18.117188 448.75 18.117188 395.390625 C 18.117188 342.03125 28.59375 290.242188 49.242188 241.472656 C 69.1875 194.386719 97.730469 152.101562 134.078125 115.808594 C 170.425781 79.507812 212.765625 51 259.917969 31.082031 C 308.75 10.457031 360.601562 0 414.035156 0 C 467.464844 0 519.324219 10.457031 568.15625 31.082031 C 615.304688 51 657.644531 79.507812 693.988281 115.808594 C 720.464844 142.25 742.800781 171.859375 760.6875 204.191406 C 745.0625 178.175781 726.269531 154.148438 704.488281 132.402344 C 670.292969 98.25 630.46875 71.433594 586.117188 52.699219 C 540.199219 33.308594 491.425781 23.464844 441.152344 23.464844 C 390.882812 23.464844 342.109375 33.308594 296.1875 52.699219 C 251.839844 71.433594 212.015625 98.25 177.8125 132.402344 C 143.617188 166.558594 116.765625 206.328125 98.007812 250.617188 C 78.585938 296.476562 68.738281 345.1875 68.738281 395.390625 C 68.738281 445.59375 78.585938 494.304688 98.007812 540.160156 C 116.765625 584.453125 143.617188 624.222656 177.8125 658.375 C 212.011719 692.53125 251.839844 719.34375 296.1875 738.078125 C 342.109375 757.46875 390.882812 767.304688 441.152344 767.304688 C 491.425781 767.304688 540.199219 757.46875 586.117188 738.078125 C 630.46875 719.34375 670.292969 692.53125 704.488281 658.375 C 726.269531 636.632812 745.0625 612.601562 760.6875 586.585938 C 742.800781 618.921875 720.464844 648.535156 693.988281 674.96875 C 657.644531 711.269531 615.304688 739.777344 568.15625 759.6875 C 519.324219 780.320312 467.472656 790.777344 414.035156 790.777344 " fill-opacity="1" fill-rule="nonzero"/></g><path fill="#1f2122" d="M 441.152344 745.640625 C 308.816406 745.640625 193.355469 672.0625 133.648438 563.710938 C 190.972656 658.597656 295.207031 722.175781 414.035156 722.175781 C 594.464844 722.175781 741.253906 575.578125 741.253906 395.390625 C 741.253906 215.199219 594.464844 68.609375 414.035156 68.609375 C 295.207031 68.609375 190.972656 132.179688 133.648438 227.066406 C 193.355469 118.71875 308.816406 45.132812 441.152344 45.132812 C 634.542969 45.132812 791.875 202.257812 791.875 395.390625 C 791.875 588.519531 634.542969 745.640625 441.152344 745.640625 " fill-opacity="1" fill-rule="nonzero"/><g fill="#1f2122" fill-opacity="1"><g transform="translate(195.20667, 606.461539)"><g><path d="M 12.230469 -407.707031 L 12.230469 -403.628906 C 47.292969 -403.628906 49.738281 -374.683594 49.738281 -294.363281 L 49.738281 -113.34375 C 49.738281 -33.023438 47.292969 -4.078125 12.230469 -4.078125 L 12.230469 0 L 122.3125 0 L 122.3125 -4.078125 C 87.25 -4.078125 53.816406 -33.433594 53.816406 -152.074219 L 53.816406 -203.851562 L 54.226562 -378.757812 C 116.195312 -245.847656 152.890625 -166.75 216.898438 -29.761719 L 220.570312 -29.761719 C 270.714844 -164.304688 311.894531 -276.425781 355.925781 -394.25 L 355.925781 -113.34375 C 355.925781 -33.023438 353.480469 -4.078125 318.417969 -4.078125 L 318.417969 0 L 428.5 0 L 428.5 -4.078125 C 393.4375 -4.078125 390.988281 -33.023438 390.988281 -113.34375 L 390.988281 -294.363281 C 390.988281 -374.683594 393.4375 -403.628906 428.5 -403.628906 L 428.5 -407.707031 L 356.742188 -407.707031 L 234.429688 -79.09375 L 77.871094 -407.707031 Z M 12.230469 -407.707031 "/></g></g></g><g clip-path="url(#33cdb46c4f)"><path fill="#ffffff" d="M 258.105469 258.632812 L 258.105469 536.808594 L 235.414062 536.808594 L 235.414062 258.632812 Z M 258.105469 258.632812 " fill-opacity="1" fill-rule="nonzero"/></g><g fill="#1f2122" fill-opacity="1"><g transform="translate(295.986142, 557.712317)"><g><path d="M -1.210938 -16.199219 C -0.304688 -18.019531 -0.605469 -22.410156 -2.121094 -26.800781 C -2.421875 -27.554688 -2.726562 -28.617188 -2.726562 -29.070312 C -3.027344 -31.191406 -9.386719 -46.632812 -10.597656 -48.300781 C -10.902344 -48.753906 -11.808594 -50.117188 -12.566406 -51.480469 C -14.082031 -54.660156 -13.929688 -54.355469 -15.292969 -56.171875 L -21.199219 -64.5 L -23.316406 -67.378906 L -24.527344 -69.195312 L -38.15625 -87.816406 L -44.210938 -96.449219 C -45.121094 -97.960938 -46.332031 -99.324219 -46.632812 -99.324219 C -47.089844 -99.324219 -47.996094 -100.6875 -47.84375 -100.992188 C -47.84375 -101.140625 -47.84375 -101.445312 -47.996094 -101.746094 L -54.355469 -110.378906 C -54.660156 -110.984375 -55.113281 -111.742188 -55.566406 -112.195312 C -56.171875 -113.101562 -56.324219 -113.558594 -56.628906 -117.34375 L -56.929688 -122.640625 C -57.234375 -126.578125 -57.234375 -127.789062 -56.929688 -127.640625 L -54.203125 -125.214844 L -50.722656 -121.886719 L -43.304688 -115.527344 L -41.488281 -114.011719 C -40.125 -112.800781 -36.488281 -109.773438 -35.582031 -108.710938 C -34.824219 -108.105469 -33.460938 -106.894531 -32.402344 -106.136719 L -30.28125 -104.320312 C -30.128906 -104.019531 -29.523438 -103.566406 -28.917969 -103.109375 L -27.253906 -101.898438 C -26.34375 -100.992188 -23.921875 -99.777344 -23.015625 -99.777344 C -22.558594 -99.777344 -22.257812 -99.929688 -22.105469 -100.535156 L -21.804688 -101.292969 C -21.804688 -101.445312 -23.015625 -102.050781 -23.46875 -102.050781 C -23.921875 -102.050781 -26.949219 -103.714844 -27.859375 -104.625 L -33.007812 -108.863281 L -38.914062 -114.011719 L -46.179688 -120.21875 L -50.117188 -123.703125 L -52.691406 -125.820312 L -55.265625 -128.394531 L -57.382812 -130.363281 L -57.535156 -132.179688 C -57.6875 -133.242188 -57.839844 -136.421875 -57.839844 -139.296875 C -57.988281 -145.960938 -58.140625 -149.59375 -58.292969 -153.53125 C -58.445312 -156.558594 -58.445312 -156.558594 -57.988281 -157.164062 C -57.535156 -157.617188 -57.382812 -157.921875 -57.535156 -158.828125 C -57.839844 -161.402344 -59.351562 -162.765625 -60.261719 -161.25 C -60.5625 -160.796875 -60.714844 -160.191406 -60.5625 -157.464844 C -60.261719 -153.832031 -60.261719 -153.378906 -59.957031 -150.5 C -59.808594 -149.289062 -59.65625 -145.65625 -59.503906 -142.324219 L -59.351562 -134.300781 C -59.203125 -133.242188 -59.351562 -132.332031 -59.351562 -132.179688 L -61.625 -134.148438 L -69.195312 -141.71875 C -76.460938 -148.535156 -83.882812 -155.953125 -85.847656 -158.222656 L -87.96875 -160.496094 L -93.269531 -166.550781 C -95.386719 -168.972656 -99.023438 -173.0625 -99.628906 -173.96875 C -100.535156 -175.332031 -103.867188 -178.511719 -104.625 -178.816406 C -105.53125 -179.269531 -106.742188 -179.117188 -107.199219 -178.816406 C -107.5 -178.359375 -107.5 -177.605469 -107.046875 -177.148438 C -106.742188 -176.847656 -106.289062 -176.542969 -105.835938 -176.394531 C -105.382812 -176.089844 -104.925781 -175.789062 -104.625 -175.484375 L -103.566406 -173.96875 C -103.109375 -173.515625 -101.746094 -172 -100.6875 -170.488281 L -96.75 -165.035156 L -95.84375 -163.523438 L -94.933594 -162.464844 C -94.78125 -162.160156 -94.632812 -161.855469 -94.632812 -161.707031 C -94.632812 -161.554688 -94.480469 -161.402344 -94.328125 -161.402344 C -94.175781 -161.402344 -94.175781 -161.25 -94.175781 -161.25 C -94.328125 -161.101562 -94.175781 -160.949219 -94.027344 -160.796875 C -93.875 -160.796875 -92.964844 -159.738281 -92.058594 -158.527344 L -89.9375 -155.5 L -86.605469 -151.5625 L -85.847656 -150.351562 C -85.699219 -150.046875 -85.394531 -149.441406 -85.242188 -149.289062 L -83.882812 -147.777344 C -82.367188 -145.503906 -79.640625 -142.175781 -79.035156 -141.570312 L -78.429688 -140.507812 L -77.523438 -139.144531 L -75.554688 -136.570312 L -74.191406 -134.753906 L -73.28125 -133.695312 L -70.253906 -129.605469 C -69.347656 -128.546875 -68.589844 -127.488281 -68.589844 -127.488281 C -68.4375 -127.488281 -68.4375 -127.335938 -68.4375 -127.183594 C -68.4375 -127.03125 -67.074219 -125.214844 -65.863281 -123.851562 C -65.5625 -123.398438 -65.257812 -122.945312 -65.257812 -122.792969 C -65.257812 -122.640625 -64.953125 -122.339844 -64.804688 -122.1875 L -63.289062 -120.21875 C -62.683594 -119.460938 -62.078125 -118.707031 -61.925781 -118.707031 C -61.472656 -118.707031 -61.472656 -119.007812 -61.925781 -119.613281 C -62.078125 -119.917969 -62.230469 -120.21875 -62.230469 -120.523438 C -62.230469 -120.675781 -62.53125 -121.128906 -62.835938 -121.429688 C -64.046875 -122.945312 -64.953125 -124.15625 -64.953125 -124.308594 C -64.953125 -124.460938 -65.105469 -124.609375 -65.257812 -124.609375 C -65.410156 -124.609375 -66.167969 -125.214844 -66.773438 -126.125 C -67.378906 -127.03125 -68.4375 -128.246094 -68.890625 -128.699219 C -69.347656 -129.304688 -69.800781 -130.0625 -69.800781 -130.363281 C -69.800781 -130.667969 -70.253906 -131.273438 -70.859375 -132.03125 C -71.617188 -132.636719 -72.375 -133.695312 -72.828125 -134.148438 L -74.492188 -136.421875 C -76.917969 -139.601562 -77.371094 -140.054688 -77.371094 -140.355469 C -77.371094 -140.507812 -77.671875 -140.660156 -77.976562 -140.960938 C -78.277344 -141.113281 -78.582031 -141.417969 -78.582031 -141.570312 C -78.582031 -141.71875 -78.882812 -142.324219 -79.492188 -142.929688 C -79.945312 -143.386719 -80.398438 -144.140625 -80.703125 -144.445312 C -80.851562 -144.898438 -81.15625 -145.203125 -81.15625 -145.203125 C -81.308594 -145.203125 -81.457031 -145.355469 -81.609375 -145.65625 C -81.609375 -145.960938 -81.914062 -146.414062 -82.0625 -146.714844 C -82.820312 -147.472656 -84.488281 -149.894531 -84.636719 -150.351562 C -84.789062 -150.5 -84.941406 -150.804688 -85.09375 -150.804688 C -85.242188 -150.804688 -85.394531 -150.957031 -85.546875 -151.257812 C -85.699219 -151.863281 -86.757812 -153.679688 -87.210938 -153.984375 L -88.121094 -155.347656 C -88.574219 -155.953125 -89.179688 -156.558594 -89.332031 -156.859375 C -89.636719 -157.011719 -89.9375 -157.464844 -90.242188 -158.070312 L -95.386719 -165.492188 C -97.507812 -168.214844 -96.144531 -167.003906 -91.300781 -161.855469 C -88.878906 -159.132812 -84.789062 -154.742188 -81.761719 -151.714844 C -80.703125 -150.652344 -79.792969 -149.59375 -79.792969 -149.441406 L -79.640625 -149.289062 C -79.492188 -149.289062 -78.128906 -148.078125 -76.613281 -146.566406 C -62.53125 -132.785156 -59.203125 -129.457031 -59.050781 -129.152344 L -58.292969 -119.613281 C -58.292969 -117.644531 -58.140625 -115.675781 -57.988281 -115.527344 C -57.839844 -114.921875 -58.292969 -115.070312 -58.898438 -115.828125 C -60.261719 -117.496094 -60.867188 -118.25 -61.167969 -118.25 C -61.625 -118.25 -61.320312 -117.644531 -60.109375 -116.28125 L -58.140625 -113.710938 C -57.382812 -112.648438 -57.234375 -112.347656 -57.535156 -111.589844 C -57.535156 -111.285156 -57.6875 -110.832031 -57.535156 -110.679688 C -57.382812 -110.378906 -57.082031 -108.257812 -56.324219 -102.65625 C -56.171875 -100.839844 -55.871094 -98.566406 -55.566406 -97.660156 L -54.960938 -94.632812 C -54.808594 -92.964844 -53.144531 -86.152344 -52.84375 -85.847656 L -52.085938 -85.847656 C -51.023438 -86.152344 -51.023438 -87.210938 -51.78125 -89.179688 C -52.691406 -91.148438 -53.449219 -94.175781 -54.355469 -100.082031 L -55.113281 -105.683594 C -55.417969 -107.804688 -55.71875 -109.167969 -55.71875 -109.921875 L -53.75 -107.351562 C -52.992188 -106.441406 -51.933594 -104.925781 -51.328125 -104.019531 L -49.359375 -101.292969 C -48.753906 -100.6875 -48.453125 -100.082031 -48.453125 -99.929688 C -48.453125 -99.777344 -48.148438 -99.324219 -47.695312 -98.871094 C -46.9375 -97.8125 -44.210938 -93.875 -41.789062 -90.542969 L -39.519531 -87.210938 C -39.214844 -86.757812 -38.914062 -86.304688 -38.914062 -86.152344 C -38.914062 -86.152344 -38.761719 -85.847656 -38.457031 -85.546875 C -38.15625 -85.242188 -36.792969 -83.277344 -35.277344 -81.308594 C -32.097656 -76.613281 -31.191406 -75.402344 -28.769531 -72.222656 C -27.707031 -70.859375 -26.648438 -69.347656 -26.496094 -68.738281 C -26.195312 -68.132812 -26.042969 -67.679688 -25.890625 -67.679688 C -25.738281 -67.679688 -24.984375 -66.773438 -24.074219 -65.863281 L -21.953125 -63.136719 C -21.652344 -62.835938 -21.347656 -62.382812 -21.347656 -62.078125 C -21.347656 -61.925781 -21.046875 -61.320312 -20.589844 -60.867188 C -20.136719 -60.414062 -19.683594 -59.808594 -19.53125 -59.351562 C -19.53125 -59.050781 -19.230469 -58.292969 -18.773438 -57.988281 L -17.867188 -56.476562 L -16.503906 -54.960938 C -15.898438 -54.507812 -15.59375 -54.203125 -15.59375 -54.054688 C -15.746094 -53.902344 -15.292969 -52.992188 -14.535156 -51.78125 C -13.929688 -50.722656 -13.324219 -49.664062 -13.324219 -49.511719 C -13.476562 -49.511719 -12.71875 -47.996094 -11.660156 -46.179688 C -10.75 -44.363281 -9.839844 -42.546875 -9.691406 -41.941406 L -8.628906 -39.519531 L -7.875 -37.851562 L -7.269531 -36.035156 C -5.753906 -31.949219 -5.601562 -31.039062 -5.148438 -29.222656 L -4.089844 -25.589844 C -3.785156 -24.378906 -3.484375 -22.863281 -3.632812 -21.199219 C -3.632812 -18.773438 -3.632812 -18.773438 -4.390625 -19.078125 C -6.054688 -19.683594 -6.359375 -19.683594 -6.8125 -19.230469 C -7.117188 -18.773438 -7.269531 -18.472656 -6.964844 -17.867188 C -6.660156 -16.503906 -5.449219 -15.746094 -3.484375 -15.445312 L -1.816406 -15.140625 Z M -1.210938 -16.199219 "/></g></g></g><g fill="#1f2122" fill-opacity="1"><g transform="translate(295.986142, 424.017311)"><g><path d="M -41.335938 -3.332031 C -41.183594 -3.9375 -41.183594 -4.542969 -41.335938 -5.148438 L -41.335938 -5.601562 C -41.335938 -5.601562 -41.941406 -8.328125 -43.304688 -11.203125 L -47.238281 -19.835938 C -47.390625 -20.136719 -47.84375 -20.136719 -47.996094 -19.835938 L -48.148438 -19.683594 L -48.148438 -19.230469 L -47.996094 -18.925781 C -45.121094 -12.265625 -43.304688 -7.722656 -42.847656 -5.753906 C -42.847656 -5.753906 -42.242188 -3.785156 -42.847656 -3.632812 C -44.210938 -3.027344 -45.878906 -4.089844 -46.785156 -4.84375 C -47.542969 -5.449219 -49.359375 -6.964844 -49.359375 -5.148438 C -49.359375 -4.84375 -49.511719 -4.390625 -49.664062 -4.390625 C -50.269531 -4.238281 -50.117188 -3.785156 -48.753906 -1.210938 C -47.542969 1.058594 -45.726562 3.9375 -44.210938 5.753906 C -43.605469 6.511719 -43.304688 6.8125 -42.847656 6.8125 C -42.09375 6.8125 -41.941406 6.359375 -41.941406 5.449219 C -41.941406 4.695312 -43.453125 1.664062 -44.363281 0.453125 C -45.421875 -0.757812 -46.484375 -2.726562 -46.332031 -2.726562 L -45.273438 -2.269531 C -44.816406 -1.96875 -44.210938 -1.816406 -43.757812 -1.816406 C -43.152344 -1.664062 -42.699219 -1.664062 -42.09375 -2.121094 C -41.636719 -2.421875 -41.335938 -2.726562 -41.335938 -3.332031 Z M -43.304688 5.148438 L -43.910156 4.238281 C -44.816406 3.332031 -46.484375 0.910156 -47.390625 -1.058594 C -48.300781 -2.574219 -48.300781 -2.875 -47.996094 -2.875 C -47.84375 -2.875 -47.542969 -2.421875 -47.390625 -1.96875 C -46.785156 -0.757812 -46.332031 -0.152344 -46.027344 0.152344 C -45.726562 0.453125 -44.210938 3.027344 -43.605469 4.238281 Z M -43.304688 5.148438 "/></g></g></g><g fill="#1f2122" fill-opacity="1"><g transform="translate(295.986142, 404.636836)"><g><path d="M -38.003906 -19.683594 C -38.457031 -23.621094 -40.125 -30.585938 -42.699219 -36.640625 C -44.210938 -40.578125 -44.363281 -41.183594 -46.785156 -46.332031 L -47.089844 -46.785156 C -47.238281 -47.089844 -47.238281 -47.390625 -47.542969 -47.542969 C -47.84375 -47.695312 -47.996094 -47.390625 -48.148438 -47.238281 L -48.148438 -46.785156 C -47.996094 -46.484375 -47.996094 -46.179688 -47.84375 -45.878906 L -47.089844 -44.363281 L -46.9375 -43.757812 L -44.816406 -38.761719 L -44.210938 -36.792969 C -42.09375 -31.191406 -39.820312 -25.589844 -39.367188 -18.472656 C -39.367188 -15.898438 -39.667969 -14.839844 -40.730469 -14.234375 C -41.335938 -13.777344 -41.941406 -13.777344 -43.152344 -13.929688 C -44.664062 -14.082031 -46.179688 -15.292969 -46.785156 -16.199219 C -47.238281 -16.804688 -47.695312 -16.957031 -48.148438 -16.503906 C -48.453125 -16.050781 -48.148438 -14.6875 -47.84375 -14.234375 C -47.390625 -13.777344 -45.273438 -6.8125 -45.421875 -6.054688 C -45.574219 -5.601562 -45.574219 -5.601562 -46.332031 -6.054688 C -47.089844 -6.359375 -47.238281 -6.359375 -47.542969 -6.054688 C -47.996094 -5.601562 -47.996094 -4.84375 -47.238281 -3.9375 L -46.632812 -3.179688 L -45.273438 -0.910156 L -44.96875 -0.605469 L -44.664062 0 C -44.664062 0.152344 -44.363281 0.605469 -44.515625 0.757812 C -44.664062 0.757812 -44.96875 0.304688 -45.121094 0.152344 C -46.332031 -1.210938 -47.84375 -2.421875 -48.300781 -2.269531 L -48.753906 -2.269531 C -49.058594 -2.269531 -49.207031 -1.210938 -49.058594 -0.910156 C -48.753906 -0.605469 -43.910156 3.632812 -43.152344 4.089844 C -42.242188 4.542969 -41.789062 4.695312 -41.335938 4.238281 C -40.730469 3.632812 -41.183594 2.726562 -43 -0.152344 C -44.515625 -2.269531 -45.273438 -3.785156 -44.816406 -3.332031 C -44.664062 -3.179688 -44.363281 -3.332031 -44.058594 -3.632812 C -43.605469 -4.238281 -43.605469 -4.390625 -43.605469 -5.449219 C -43.757812 -6.8125 -44.664062 -10.449219 -45.121094 -11.203125 C -45.273438 -11.660156 -45.421875 -11.960938 -45.273438 -11.960938 C -45.273438 -12.113281 -44.664062 -12.113281 -44.058594 -11.960938 C -40.730469 -11.054688 -38.914062 -12.113281 -38.15625 -15.140625 C -37.851562 -16.351562 -37.851562 -17.414062 -38.003906 -19.683594 Z M -38.003906 -19.683594 "/></g></g></g><g fill="#1f2122" fill-opacity="1"><g transform="translate(295.986142, 357.851168)"><g><path d="M -52.085938 -6.359375 C -52.238281 -6.964844 -53.296875 -7.570312 -53.902344 -7.417969 C -54.203125 -7.417969 -54.507812 -7.117188 -54.660156 -6.964844 C -55.113281 -6.359375 -54.808594 -5.753906 -53.902344 -5.601562 C -53.449219 -5.601562 -53.144531 -5.449219 -52.992188 -5.300781 C -52.691406 -4.84375 -51.78125 -5.753906 -52.085938 -6.359375 Z M -41.183594 2.269531 C -41.335938 0.605469 -42.242188 -2.269531 -43.304688 -4.695312 L -46.332031 -11.355469 L -47.089844 -13.171875 C -47.390625 -13.625 -47.84375 -13.625 -47.996094 -13.324219 L -48.148438 -13.019531 L -48.148438 -12.71875 L -47.996094 -12.414062 C -45.121094 -5.753906 -43.304688 -1.210938 -42.847656 0.910156 C -42.847656 0.910156 -42.394531 2.121094 -42.699219 2.726562 C -43.304688 2.726562 -43.910156 2.574219 -44.515625 2.121094 L -46.632812 -0.453125 C -48.148438 -2.269531 -48.90625 -2.726562 -49.207031 -1.96875 C -49.359375 -1.664062 -48.90625 -0.453125 -48.148438 0.605469 C -45.878906 3.332031 -44.363281 4.542969 -42.847656 4.542969 L -42.394531 4.542969 C -41.488281 4.542969 -41.03125 3.785156 -41.183594 2.269531 Z M -41.183594 2.269531 "/></g></g></g><g fill="#1f2122" fill-opacity="1"><g transform="translate(295.986142, 345.132717)"><g><path d="M -40.730469 4.089844 C -41.183594 3.785156 -41.789062 2.875 -42.242188 2.269531 L -43.453125 0.605469 C -44.058594 0 -44.515625 -0.910156 -46.027344 -4.089844 L -46.9375 -5.753906 C -47.238281 -6.511719 -47.238281 -6.660156 -46.785156 -7.269531 C -46.332031 -8.175781 -46.484375 -9.386719 -47.238281 -11.507812 L -48.453125 -13.929688 L -49.207031 -15.59375 C -49.359375 -15.898438 -49.511719 -16.65625 -49.511719 -16.957031 C -49.511719 -17.414062 -49.664062 -17.714844 -49.964844 -18.167969 C -50.875 -19.078125 -51.328125 -19.230469 -51.78125 -18.925781 C -52.386719 -18.625 -52.386719 -18.167969 -51.480469 -16.957031 C -51.175781 -16.351562 -50.875 -15.898438 -50.875 -15.746094 C -50.875 -15.59375 -50.722656 -15.140625 -50.417969 -14.6875 C -49.511719 -13.324219 -48.148438 -10.296875 -48.148438 -9.386719 C -48.148438 -9.085938 -48.300781 -8.933594 -48.753906 -8.78125 C -49.664062 -8.628906 -49.8125 -8.175781 -49.359375 -7.269531 C -49.058594 -6.964844 -47.695312 -3.785156 -47.238281 -3.027344 L -46.632812 -1.664062 C -46.332031 -1.210938 -46.9375 -1.664062 -47.996094 -2.875 C -49.359375 -4.390625 -50.269531 -4.695312 -50.570312 -3.785156 C -50.722656 -3.332031 -50.722656 -3.027344 -50.269531 -2.421875 C -49.511719 -1.058594 -46.027344 2.421875 -44.515625 3.632812 L -42.847656 4.996094 C -42.242188 5.449219 -41.636719 5.90625 -41.335938 6.054688 C -40.125 6.207031 -39.820312 4.84375 -40.730469 4.089844 Z M -40.730469 4.089844 "/></g></g></g></svg>